<?xml version="1.0" encoding="UTF-8"?>
<svg width="100px" height="100px" viewBox="0 0 100 100" version="1.1" xmlns="http://www.w3.org/2000/svg" xmlns:xlink="http://www.w3.org/1999/xlink">
    <!-- Generator: Sketch 43.2 (39069) - http://www.bohemiancoding.com/sketch -->
    <title>editar</title>
    <desc>Created with Sketch.</desc>
    <defs></defs>
    <g id="Page-1" stroke="none" stroke-width="1" fill="none" fill-rule="evenodd">
        <g id="editar">
            <g id="-_add-10-copy">
                <path d="M50,2.13162821e-14 C22.4637681,2.13162821e-14 1.3500312e-13,22.4637681 1.3500312e-13,50 C1.3500312e-13,77.5362319 22.4637681,100 50,100 C77.5362319,100 100,77.5362319 100,50 C100,22.4637681 77.5362319,2.13162821e-14 50,2.13162821e-14 L50,2.13162821e-14 Z" id="Shape" fill="rgb(17, 33, 51)"></path>
                <g id="Path-+-Path-+-Path" transform="translate(24.390244, 25.609756)" fill="#FFFFFF">
                    <g id="Rectangle-19-+-Rectangle-19-Copy-2-+-Rectangle-19-Copy">
                        <path d="M4.28204692,39.6862376 L38.4283884,5.5398961 L44.7618464,11.8733541 L10.615505,46.0196956 L4.28204692,39.6862376 Z M-6.61692923e-14,49.5982292 L2.21611174,41.7521727 L8.54956978,48.0856308 L-6.61692923e-14,49.5982292 Z M41.1768603,4.19540352 C40.7891621,3.80770532 40.7854805,3.18280394 41.1825553,2.78572922 L43.7255973,0.242687165 C44.1164407,-0.148156252 44.7560663,-0.142213061 45.1352716,0.236992241 L50.0647503,5.16647091 C50.4524485,5.55416911 50.4561301,6.17907049 50.0590554,6.5761452 L47.5160133,9.11918726 C47.1251699,9.51003068 46.4855443,9.50408749 46.106339,9.12488219 L41.1768603,4.19540352 Z" id="Rectangle-19"></path>
                    </g>
                </g>
            </g>
        </g>
    </g>
</svg>