<?xml version="1.0" encoding="UTF-8"?>
<svg width="100px" height="100px" viewBox="0 0 100 100" version="1.1" xmlns="http://www.w3.org/2000/svg" xmlns:xlink="http://www.w3.org/1999/xlink">
    <!-- Generator: Sketch 43.2 (39069) - http://www.bohemiancoding.com/sketch -->
    <title>basura</title>
    <desc>Created with Sketch.</desc>
    <defs></defs>
    <g id="Page-1" stroke="none" stroke-width="1" fill="none" fill-rule="evenodd">
        <g id="basura">
            <g id="Group" fill="rgb(17, 33, 51)">
                <g id="contraer">
                    <path d="M7.10542736e-15,50 C7.10542736e-15,77.5362319 22.4637681,100 50,100 C77.5362319,100 100,77.5362319 100,50 C100,22.4637681 77.5362319,-2.13162821e-14 50,-2.13162821e-14 C22.4637681,-2.13162821e-14 7.10542736e-15,22.4637681 7.10542736e-15,50 Z" id="Shape"></path>
                </g>
            </g>
            <g id="Group-2" transform="translate(27.000000, 18.000000)" fill="#FFFFFF">
                <path d="M44,18 L44,57.007019 C44,60.316851 41.3098755,63 37.9943391,63 L9.00566089,63 C5.68882597,63 3,60.3178698 3,57.007019 L3,18 L44,18 Z M10,28.5 L10,53.5 C10,54.8807119 11.1192881,56 12.5,56 C13.8807119,56 15,54.8807119 15,53.5 L15,28.5 C15,27.1192881 13.8807119,26 12.5,26 C11.1192881,26 10,27.1192881 10,28.5 Z M21,28.5 L21,53.5 C21,54.8807119 22.1192881,56 23.5,56 C24.8807119,56 26,54.8807119 26,53.5 L26,28.5 C26,27.1192881 24.8807119,26 23.5,26 C22.1192881,26 21,27.1192881 21,28.5 Z M32,28.5 L32,53.5 C32,54.8807119 33.1192881,56 34.5,56 C35.8807119,56 37,54.8807119 37,53.5 L37,28.5 C37,27.1192881 35.8807119,26 34.5,26 C33.1192881,26 32,27.1192881 32,28.5 Z" id="Combined-Shape"></path>
                <path d="M47,15 L47,12.992981 C47,9.6821302 44.3135645,7 40.9996783,7 L6.00032171,7 C2.69573366,7 0,9.68314897 0,12.992981 L0,15 L47,15 Z" id="Combined-Shape"></path>
                <path d="M17.2657376,5 C17.7411623,2.16248702 20.2116055,0 23.180037,0 L24.6353624,0 C27.6074511,0 30.0745577,2.1648024 30.549645,5 L17.2657376,5 Z" id="Combined-Shape-Copy"></path>
            </g>
        </g>
    </g>
</svg>