<?xml version="1.0" encoding="UTF-8"?>
<svg width="100px" height="100px" viewBox="0 0 100 100" version="1.1" xmlns="http://www.w3.org/2000/svg" xmlns:xlink="http://www.w3.org/1999/xlink">
    <!-- Generator: Sketch 43.2 (39069) - http://www.bohemiancoding.com/sketch -->
    <title>cerrar-no-cumplidas</title>
    <desc>Created with Sketch.</desc>
    <defs></defs>
    <g id="Page-1" stroke="none" stroke-width="1" fill="none" fill-rule="evenodd">
        <g id="cerrar-no-cumplidas">
            <g id="Group">
                <g id="contraer" fill="rgb(17, 33, 51)">
                    <path d="M7.10542736e-15,50 C7.10542736e-15,77.5362319 22.4637681,100 50,100 C77.5362319,100 100,77.5362319 100,50 C100,22.4637681 77.5362319,-2.13162821e-14 50,-2.13162821e-14 C22.4637681,-2.13162821e-14 7.10542736e-15,22.4637681 7.10542736e-15,50 Z" id="Shape"></path>
                </g>
                <path d="M31.767767,71.767767 L71.767767,31.767767 C72.7440777,30.7914562 72.7440777,29.2085438 71.767767,28.232233 C70.7914562,27.2559223 69.2085438,27.2559223 68.232233,28.232233 L28.232233,68.232233 C27.2559223,69.2085438 27.2559223,70.7914562 28.232233,71.767767 C29.2085438,72.7440777 30.7914562,72.7440777 31.767767,71.767767 Z" id="Path-8" fill="#FFFFFF" fill-rule="nonzero"></path>
                <path d="M71.767767,68.232233 L31.767767,28.232233 C30.7914562,27.2559223 29.2085438,27.2559223 28.232233,28.232233 C27.2559223,29.2085438 27.2559223,30.7914562 28.232233,31.767767 L68.232233,71.767767 C69.2085438,72.7440777 70.7914562,72.7440777 71.767767,71.767767 C72.7440777,70.7914562 72.7440777,69.2085438 71.767767,68.232233 Z" id="Path-8-Copy" fill="#FFFFFF" fill-rule="nonzero"></path>
            </g>
        </g>
    </g>
</svg>